<svg data-v-423bf9ae="" xmlns="http://www.w3.org/2000/svg" viewBox="0 0 386 90" class="iconLeft"><!----><!----><!----><g data-v-423bf9ae="" id="3e6fde7b-afcd-40d5-b14c-1811c5547b5d" fill="white" transform="matrix(6.302831172943115,0,0,6.302831172943115,102.61387634277344,-9.078783988952637)"><path d="M7.53 5.07L7.53 3.82L1.17 3.82L1.17 13.15L2.65 13.15L2.65 9.07L6.80 9.07L6.80 7.90L2.65 7.90L2.65 5.07ZM10.27 11.87L10.27 3.82L8.78 3.82L8.78 13.15L14.58 13.15L14.58 11.87ZM19.47 13.34C21.71 13.34 23.35 12.22 23.35 9.54L23.35 3.82L21.86 3.82L21.86 9.35C21.86 11.29 20.85 12.02 19.47 12.02C18.10 12.02 17.09 11.29 17.09 9.35L17.09 3.82L15.60 3.82L15.60 9.54C15.60 12.22 17.22 13.34 19.47 13.34ZM33.64 3.82L30.22 11.45L26.77 3.82L25.45 3.82L25.45 13.15L26.92 13.15L26.92 7.12L29.69 13.15L30.73 13.15L33.50 7.12L33.50 13.15L34.97 13.15L34.97 3.82ZM43.24 13.15L44.84 13.15L41.15 3.82L39.65 3.82L35.96 13.15L37.57 13.15L38.46 10.75L42.35 10.73ZM38.89 9.57L40.41 5.45L41.91 9.57Z"></path></g><!----><g data-v-423bf9ae="" id="8c90a62d-5286-46c5-a876-236e39ecaf3e" transform="matrix(2.8125,0,0,2.8125,0,0)" stroke="none" fill="white"><path d="M16 32c8.837 0 16-7.163 16-16S24.837 0 16 0 0 7.163 0 16s7.163 16 16 16zM14.817 6.421h2v8.886h8.887v2H14.817V6.421zm-5.959.437h2v14.283h14.283v2H8.858V6.858z"></path></g><!----></svg>